<svg width="42" height="23" viewBox="0 0 42 23" fill="none" xmlns="http://www.w3.org/2000/svg">
<path d="M0 11.5C0 5.14873 5.14873 0 11.5 0H30.5C36.8513 0 42 5.14873 42 11.5C42 17.8513 36.8513 23 30.5 23H11.5C5.14873 23 0 17.8513 0 11.5Z" fill="#F64775"/>
<path d="M10.0693 9.59814V15H8.89502V8.13184H10.0059L10.0693 9.59814ZM9.79004 11.3057L9.30127 11.2866C9.3055 10.8169 9.37533 10.3831 9.51074 9.98535C9.64616 9.58333 9.83659 9.23421 10.082 8.93799C10.3275 8.64176 10.6195 8.41325 10.958 8.25244C11.3008 8.0874 11.6795 8.00488 12.0942 8.00488C12.4328 8.00488 12.7375 8.05143 13.0083 8.14453C13.2791 8.2334 13.5098 8.37728 13.7002 8.57617C13.8949 8.77507 14.043 9.0332 14.1445 9.35059C14.2461 9.66374 14.2969 10.0467 14.2969 10.4995V15H13.1162V10.4868C13.1162 10.1271 13.0633 9.83936 12.9575 9.62354C12.8517 9.40348 12.6973 9.24479 12.4941 9.14746C12.291 9.0459 12.0413 8.99512 11.7451 8.99512C11.4531 8.99512 11.1865 9.05648 10.9453 9.1792C10.7083 9.30192 10.5031 9.47119 10.3296 9.68701C10.1603 9.90283 10.027 10.1504 9.92969 10.4297C9.83659 10.7048 9.79004 10.9967 9.79004 11.3057ZM18.9307 15.127C18.4525 15.127 18.0187 15.0465 17.6294 14.8857C17.2443 14.7207 16.9121 14.4901 16.6328 14.1938C16.3577 13.8976 16.1462 13.5464 15.998 13.1401C15.8499 12.7339 15.7759 12.2896 15.7759 11.8071V11.5405C15.7759 10.9819 15.8584 10.4847 16.0234 10.0488C16.1885 9.60872 16.4128 9.23633 16.6963 8.93164C16.9798 8.62695 17.3014 8.39632 17.6611 8.23975C18.0208 8.08317 18.3932 8.00488 18.7783 8.00488C19.2692 8.00488 19.6924 8.08952 20.0479 8.25879C20.4076 8.42806 20.7017 8.66504 20.9302 8.96973C21.1587 9.27018 21.328 9.62565 21.438 10.0361C21.548 10.4424 21.603 10.8867 21.603 11.3691V11.896H16.4741V10.9375H20.4287V10.8486C20.4118 10.5439 20.3483 10.2477 20.2383 9.95996C20.1325 9.6722 19.9632 9.43522 19.7305 9.24902C19.4977 9.06283 19.1803 8.96973 18.7783 8.96973C18.5117 8.96973 18.2663 9.02686 18.042 9.14111C17.8177 9.25114 17.6252 9.41618 17.4644 9.63623C17.3035 9.85628 17.1787 10.125 17.0898 10.4424C17.001 10.7598 16.9565 11.1258 16.9565 11.5405V11.8071C16.9565 12.133 17.001 12.4398 17.0898 12.7275C17.1829 13.0111 17.3162 13.2607 17.4897 13.4766C17.6675 13.6924 17.8812 13.8617 18.1309 13.9844C18.3848 14.1071 18.6725 14.1685 18.9941 14.1685C19.4089 14.1685 19.7601 14.0838 20.0479 13.9146C20.3356 13.7453 20.5874 13.5189 20.8032 13.2354L21.5142 13.8003C21.366 14.0246 21.1777 14.2383 20.9492 14.4414C20.7207 14.6445 20.4393 14.8096 20.105 14.9365C19.7749 15.0635 19.3835 15.127 18.9307 15.127ZM24.7134 13.7812L26.478 8.13184H27.2524L27.1001 9.25537L25.3037 15H24.5483L24.7134 13.7812ZM23.5264 8.13184L25.0308 13.8447L25.1387 15H24.3452L22.3521 8.13184H23.5264ZM28.9409 13.8003L30.3755 8.13184H31.5435L29.5503 15H28.7632L28.9409 13.8003ZM27.4238 8.13184L29.1504 13.686L29.3472 15H28.5981L26.751 9.24268L26.5986 8.13184H27.4238Z" fill="white"/>
</svg>
